<svg width="100" height="101" viewBox="0 0 100 101" fill="none" xmlns="http://www.w3.org/2000/svg">
<path d="M78.3419 21.1604V47.1457C78.3523 47.1901 78.3577 47.2355 78.3582 47.281H85.1255V21.1604H78.3419Z" fill="#FAA51F"/>
<path d="M66.0504 63.2858V87.489C66.0602 87.5301 66.0657 87.5721 66.0667 87.6144H72.834V63.2858H66.0504Z" fill="#FAA51F"/>
<path d="M69.379 52.6585H46.8325C46.7945 52.6688 46.7553 52.6743 46.7159 52.6748V59.4421H69.379V52.6585Z" fill="#FAA51F"/>
<path d="M85.1318 52.6585H75.833C75.8189 52.6681 75.8025 52.6738 75.7854 52.6748V59.4421H85.1318V52.6585Z" fill="#FAA51F"/>
<path d="M85.1318 80.8283H75.833C75.8189 80.838 75.8025 80.8436 75.7854 80.8446V87.612H85.1318V80.8283Z" fill="#FAA51F"/>
<path d="M85.1318 66.7434H75.833C75.8189 66.753 75.8025 66.7587 75.7854 66.7597V73.527H85.1318V66.7434Z" fill="#FAA51F"/>
<path d="M60.5227 47.2811L60.544 47.2598V12.3241H34.8081L34.8006 40.4937H20.7233L20.7295 12.3241H13.9371V47.2811H41.5942V19.1114H53.7641V47.2811H60.5227Z" fill="#FAA51F"/>
<path d="M41.5942 59.4446H34.8081L34.8006 80.8281H20.7233L20.7295 52.6585H13.9371V87.6142H41.5942L41.5879 59.4446" fill="#FAA51F"/>
<path d="M53.7578 59.4446V87.6142H60.5251L60.5464 87.5917V59.4446H53.7578Z" fill="#FAA51F"/>
<path d="M53.7579 59.4446H43.5154V52.6585H60.544V59.4446" fill="#FAA51F"/>
<path d="M85.1281 12.3252H78.3419V18.0875H85.1281V12.3252Z" fill="#FAA51F"/>
<path d="M31.0948 22.3122H24.3087V29.0983H31.0948V22.3122Z" fill="#FAA51F"/>
<path d="M41.5941 63.2858H28.0219V70.0719H41.5941V63.2858Z" fill="#FAA51F"/>
<path d="M27.5094 52.6585H13.9371V59.4446H27.5094V52.6585Z" fill="#FAA51F"/>
<path d="M51.4532 72.3766H44.6671V79.1627H51.4532V72.3766Z" fill="#FAA51F"/>
<path d="M51.0695 30.3789H44.2833V37.165H51.0695V30.3789Z" fill="#FAA51F"/>
<path d="M72.8365 22.0566H66.0504V28.8427H72.8365V22.0566Z" fill="#FAA51F"/>
<path d="M72.8365 36.9095H66.0504V43.6957H72.8365V36.9095Z" fill="#FAA51F"/>
<path d="M23.7132 0.0010376H0V6.64054H23.7132V0.0010376Z" fill="#222832"/>
<path d="M6.64099 23.7144L6.64099 0.00119019L0.00148582 0.00119019L0.00148582 23.7144H6.64099Z" fill="#222832"/>
<path d="M0.00140381 76.1512L0.00140381 99.8644H6.64091L6.64091 76.1512H0.00140381Z" fill="#222832"/>
<path d="M23.7132 93.2249H0V99.8644H23.7132V93.2249Z" fill="#222832"/>
<path d="M76.2868 100.137H100V93.497H76.2868V100.137Z" fill="#222832"/>
<path d="M93.3605 76.4233V100.137H100V76.4233H93.3605Z" fill="#222832"/>
<path d="M100 23.7132V0L93.3605 0V23.7132H100Z" fill="#222832"/>
<path d="M76.2868 6.63956L100 6.63956V5.14984e-05L76.2868 5.14984e-05V6.63956Z" fill="#222832"/>
</svg>
